<svg width="241" height="83" viewBox="0 0 241 83" fill="none" xmlns="http://www.w3.org/2000/svg">
<path d="M130.676 69.0932C127.945 66.7435 125.31 64.2349 122.77 61.5676C120.293 58.8368 117.975 56.0425 115.816 53.1847C113.72 50.3269 111.783 47.4373 110.005 44.516C108.29 41.5311 106.829 38.6098 105.623 35.752C103.464 38.1018 101.304 40.4833 99.145 42.8965C97.0493 45.2463 95.1758 47.6278 93.5246 50.0411C91.8735 52.3909 90.5398 54.7724 89.5237 57.1856C88.4441 59.5354 87.9043 61.8852 87.9043 64.2349C87.9043 67.0292 88.3806 69.4425 89.3332 71.4747C90.2223 73.4435 91.4289 75.0629 92.9531 76.333C94.4772 77.6032 96.2237 78.524 98.1924 79.0956C100.161 79.6672 102.193 79.9529 104.289 79.9529C108.481 79.9529 112.926 78.9686 117.626 76.9999C122.325 75.0311 126.675 72.3956 130.676 69.0932ZM118.864 12.6036C118.864 10.3809 118.356 8.79321 117.34 7.84061C116.387 6.8245 115.339 6.31644 114.196 6.31644C113.244 6.31644 112.227 6.63397 111.148 7.26905C110.132 7.90412 109.179 8.82497 108.29 10.0316C107.464 11.1747 106.766 12.5719 106.194 14.2231C105.623 15.8743 105.337 17.6842 105.337 19.6529C105.337 23.2728 106.004 27.115 107.337 31.1795C108.925 29.5283 110.418 27.9089 111.815 26.3212C113.212 24.7335 114.418 23.1776 115.435 21.6534C116.514 20.0657 117.34 18.5416 117.911 17.0809C118.546 15.5567 118.864 14.0643 118.864 12.6036ZM155.539 82.1439C155.539 82.3345 155.412 82.525 155.158 82.7155C154.904 82.906 154.523 83.0013 154.015 83.0013C150.205 81.7947 146.458 80.1117 142.774 77.9525C139.091 75.7297 135.503 73.1577 132.01 70.2364C129.597 72.0781 127.088 73.761 124.484 75.2852C121.881 76.8093 119.213 78.1112 116.482 79.1909C113.815 80.2705 111.116 81.0961 108.385 81.6676C105.718 82.2392 103.146 82.525 100.669 82.525C98.2559 82.525 95.9697 82.1757 93.8104 81.4771C91.6512 80.842 89.7777 79.8577 88.19 78.524C86.6024 77.1269 85.364 75.4122 84.4749 73.38C83.5223 71.3477 83.046 68.9662 83.046 66.2354C83.046 63.3141 83.7128 60.4563 85.0464 57.6619C86.3801 54.8041 88.0948 52.0098 90.1905 49.279C92.2862 46.5482 94.6043 43.8809 97.1445 41.2771C99.7483 38.6733 102.289 36.133 104.765 33.6563C102.924 28.7027 102.003 24.2254 102.003 20.2245C102.003 17.8747 102.416 15.7155 103.241 13.7468C104.13 11.778 105.242 10.0951 106.575 8.69795C107.909 7.3008 109.37 6.22118 110.957 5.45909C112.609 4.6335 114.164 4.2207 115.625 4.2207C117.34 4.2207 118.896 4.79227 120.293 5.9354C121.69 7.01501 122.389 8.82497 122.389 11.3653C122.389 12.9529 121.976 14.6041 121.15 16.3188C120.388 18.0335 119.34 19.8117 118.007 21.6534C116.736 23.4316 115.212 25.3051 113.434 27.2738C111.719 29.179 109.909 31.1477 108.004 33.1799C110.1 38.9591 113.212 44.8335 117.34 50.8032C121.531 56.7093 126.612 62.2345 132.582 67.3785C135.82 64.4572 138.424 61.2501 140.393 57.7572C142.362 54.2643 143.346 50.6127 143.346 46.8022C143.346 45.5321 143.155 44.2619 142.774 42.9918C142.457 41.6582 141.79 40.261 140.774 38.8003C140.774 38.6733 140.964 38.5463 141.346 38.4193C141.727 38.2288 142.076 38.1335 142.393 38.1335C143.282 38.1335 143.981 38.451 144.489 39.0861C145.061 39.6577 145.473 40.3563 145.727 41.1818C146.045 42.0074 146.236 42.8648 146.299 43.7539C146.426 44.5795 146.49 45.2463 146.49 45.7544C146.49 49.9458 145.315 54.0103 142.965 57.9477C140.679 61.8217 137.694 65.3781 134.01 68.6169C140.171 73.888 147.125 78.1747 154.873 81.4771C155.317 81.7311 155.539 81.9534 155.539 82.1439Z" fill="#FFA55C"/>
<path d="M19.24 48.1282C19.24 46.1442 19.112 44.4962 18.856 43.1842C18.632 41.8722 18.312 41.2162 17.896 41.2162C17.64 41.2162 17.4 41.4082 17.176 41.7922C16.952 42.1442 16.76 42.6562 16.6 43.3282C16.472 43.9682 16.36 44.7362 16.264 45.6322C16.2 46.4962 16.168 47.4402 16.168 48.4642C16.168 50.2882 16.296 52.2562 16.552 54.3682C16.808 56.4482 17.256 58.4642 17.896 60.4162C18.344 58.3682 18.68 56.2722 18.904 54.1282C19.128 51.9522 19.24 49.9522 19.24 48.1282ZM39.352 26.3362C39.352 26.4962 39.288 26.6242 39.16 26.7202C39.032 26.8162 38.872 26.9282 38.68 27.0562C37.72 27.6322 36.936 28.4322 36.328 29.4562C35.72 30.4802 35.224 31.6002 34.84 32.8162C34.488 34.0322 34.248 35.2802 34.12 36.5602C33.992 37.8082 33.928 38.9602 33.928 40.0162C33.928 40.7522 33.96 41.6642 34.024 42.7522C34.12 43.8082 34.216 44.9762 34.312 46.2562C34.44 47.5362 34.536 48.8962 34.6 50.3362C34.696 51.7442 34.744 53.1842 34.744 54.6562C34.744 56.7362 34.616 58.7522 34.36 60.7042C34.136 62.6562 33.672 64.4002 32.968 65.9362C32.296 67.4722 31.352 68.7042 30.136 69.6322C28.92 70.5602 27.336 71.0242 25.384 71.0242C24.488 71.0242 23.64 70.8482 22.84 70.4962C22.072 70.1762 21.352 69.7122 20.68 69.1042C20.04 68.4962 19.448 67.7922 18.904 66.9922C18.392 66.1922 17.928 65.3122 17.512 64.3522C17.096 65.4722 16.6 66.5122 16.024 67.4722C15.48 68.4322 14.872 69.2642 14.2 69.9682C13.528 70.6722 12.792 71.2162 11.992 71.6002C11.192 71.9842 10.344 72.1762 9.44799 72.1762C8.07199 72.1762 6.90399 71.8242 5.94399 71.1202C5.01599 70.4162 4.24799 69.4882 3.63999 68.3362C3.03199 67.2162 2.55199 65.9362 2.19999 64.4962C1.87999 63.0242 1.63999 61.5362 1.47999 60.0322C1.31999 58.4962 1.20799 57.0082 1.14399 55.5682C1.11199 54.0962 1.07999 52.8002 1.04799 51.6802C0.983991 49.6642 1.01599 47.7602 1.14399 45.9682C1.30399 44.1442 1.47999 42.5122 1.67199 41.0722C1.86399 39.6002 2.05599 38.3362 2.24799 37.2802C2.43999 36.2242 2.56799 35.4402 2.63199 34.9282C2.66399 34.7362 2.85599 34.6082 3.20799 34.5442C3.59199 34.4802 3.92799 34.4482 4.21599 34.4482C4.43999 34.4482 4.63199 34.4802 4.79199 34.5442C4.95199 34.5762 5.03199 34.6722 5.03199 34.8322C5.03199 35.0242 4.95199 35.3602 4.79199 35.8402C4.63199 36.2882 4.39199 37.1522 4.07199 38.4322C3.94399 39.0082 3.79999 39.8402 3.63999 40.9282C3.51199 41.9842 3.38399 43.1842 3.25599 44.5282C3.15999 45.8722 3.07999 47.3122 3.01599 48.8482C2.95199 50.3522 2.91999 51.8242 2.91999 53.2642C2.91999 54.3842 2.96799 55.6162 3.06399 56.9602C3.15999 58.2722 3.31999 59.5842 3.54399 60.8962C3.76799 62.1762 4.07199 63.4242 4.45599 64.6402C4.83999 65.8562 5.30399 66.9282 5.84799 67.8562C6.42399 68.7842 7.09599 69.5202 7.86399 70.0642C8.63199 70.6402 9.52799 70.9282 10.552 70.9282C11.32 70.9282 12.024 70.7362 12.664 70.3522C13.304 69.9682 13.896 69.4242 14.44 68.7202C14.984 68.0482 15.464 67.2482 15.88 66.3202C16.328 65.3922 16.728 64.3842 17.08 63.2962C16.344 61.2802 15.8 59.1362 15.448 56.8642C15.096 54.5922 14.92 52.4962 14.92 50.5762C14.92 49.1682 14.968 47.7762 15.064 46.4002C15.192 45.0242 15.368 43.7922 15.592 42.7042C15.816 41.6162 16.104 40.7362 16.456 40.0642C16.808 39.3922 17.224 39.0562 17.704 39.0562C18.088 39.0562 18.424 39.2962 18.712 39.7762C19.032 40.2562 19.288 40.9122 19.48 41.7442C19.704 42.5762 19.864 43.5682 19.96 44.7202C20.088 45.8402 20.152 47.0562 20.152 48.3682C20.152 50.4802 20.008 52.7042 19.72 55.0402C19.432 57.3442 18.984 59.6002 18.376 61.8082C18.792 62.9282 19.272 63.9682 19.816 64.9282C20.36 65.8562 20.968 66.6722 21.64 67.3762C22.344 68.0802 23.112 68.6242 23.944 69.0082C24.808 69.4242 25.752 69.6322 26.776 69.6322C28.184 69.6322 29.336 69.2802 30.232 68.5762C31.128 67.9042 31.832 66.9762 32.344 65.7922C32.856 64.5762 33.208 63.1842 33.4 61.6162C33.592 60.0162 33.688 58.3042 33.688 56.4802C33.688 54.8482 33.624 53.1682 33.496 51.4402C33.4 49.7122 33.288 48.0002 33.16 46.3042C33.032 44.5762 32.904 42.9122 32.776 41.3122C32.68 39.6802 32.632 38.1762 32.632 36.8002C32.632 35.8082 32.776 34.6562 33.064 33.3442C33.384 32.0322 33.8 30.8002 34.312 29.6482C34.856 28.4642 35.464 27.4722 36.136 26.6722C36.84 25.8402 37.576 25.4242 38.344 25.4242C38.568 25.4242 38.792 25.5362 39.016 25.7602C39.24 25.9522 39.352 26.1442 39.352 26.3362Z" fill="#FFF9F4"/>
<path d="M54.3396 58.2082C54.3396 57.7282 54.2596 57.3442 54.0996 57.0562C53.9396 56.7362 53.6836 56.5762 53.3316 56.5762C52.7876 56.5762 52.3716 56.8482 52.0836 57.3922C51.7956 57.9042 51.6676 58.5602 51.6996 59.3602C51.7956 61.0562 52.0996 62.4802 52.6116 63.6322C53.1556 62.8962 53.5716 62.0642 53.8596 61.1362C54.1796 60.2082 54.3396 59.2322 54.3396 58.2082ZM67.2996 58.1602C67.0756 58.6402 66.8356 59.1362 66.5796 59.6482C66.3236 60.1282 66.0356 60.6082 65.7156 61.0882C64.0836 63.5202 62.4356 65.3282 60.7716 66.5122C59.1076 67.6962 57.5556 68.2882 56.1156 68.2882C54.2916 68.2882 52.8996 67.4242 51.9396 65.6962C50.8196 66.8162 49.5556 67.6642 48.1476 68.2402C46.7716 68.8162 45.4116 69.1042 44.0676 69.1042C43.2676 69.1042 42.4996 68.9922 41.7636 68.7682C41.0596 68.5442 40.4516 68.2082 39.9396 67.7602C39.3956 67.2802 38.9636 66.6882 38.6436 65.9842C38.3236 65.2482 38.1636 64.4002 38.1636 63.4402C38.1636 62.2882 38.4356 61.1202 38.9796 59.9362C39.4916 58.7202 40.2116 57.6322 41.1396 56.6722C42.0996 55.6802 43.2196 54.8642 44.4996 54.2242C45.7796 53.5842 47.1716 53.2642 48.6756 53.2642C49.8916 53.2642 50.8356 53.4402 51.5076 53.7922C52.1796 54.1122 52.5156 54.4162 52.5156 54.7042C52.5156 54.8322 52.4516 54.9282 52.3236 54.9922C52.1956 55.0562 52.0836 55.0882 51.9876 55.0882C51.9556 55.0562 51.9236 55.0402 51.8916 55.0402H51.8436C51.4596 54.6882 51.0276 54.4162 50.5476 54.2242C50.0676 54.0002 49.3636 53.8882 48.4356 53.8882C47.1876 53.8882 46.0516 54.1602 45.0276 54.7042C44.0356 55.2162 43.1876 55.9042 42.4836 56.7682C41.7796 57.6002 41.2356 58.5282 40.8516 59.5522C40.4676 60.5762 40.2756 61.5842 40.2756 62.5762C40.2756 64.4962 40.7236 65.8882 41.6196 66.7522C42.5156 67.6162 43.6356 68.0482 44.9796 68.0482C46.0676 68.0482 47.2036 67.7762 48.3876 67.2322C49.5716 66.6882 50.6276 65.9202 51.5556 64.9282C51.0436 63.7762 50.7876 62.2722 50.7876 60.4162C50.7876 59.2002 51.0116 58.1442 51.4596 57.2482C51.9076 56.3522 52.5476 55.9042 53.3796 55.9042C54.5316 55.9042 55.1076 56.5762 55.1076 57.9202C55.1076 59.2642 54.9156 60.4802 54.5316 61.5682C54.1476 62.6242 53.6356 63.5842 52.9956 64.4482C53.8916 66.1122 55.1396 66.9442 56.7396 66.9442C57.9556 66.9442 59.2516 66.4322 60.6276 65.4082C62.0356 64.3842 63.4116 62.8962 64.7556 60.9442C65.0756 60.4642 65.3636 59.9682 65.6196 59.4562C65.8756 58.9442 66.1316 58.4322 66.3876 57.9202L67.2996 58.1602Z" fill="#FFF9F4"/>
<path d="M73.9667 36.7042C73.9667 34.8802 73.6627 33.4242 73.0547 32.3362C72.4787 31.2162 71.5027 30.6562 70.1267 30.6562C69.6467 30.6562 69.1987 30.8162 68.7827 31.1362C68.3987 31.4242 68.0627 31.8242 67.7747 32.3362C67.4867 32.8482 67.2627 33.4402 67.1027 34.1122C66.9427 34.7842 66.8627 35.5042 66.8627 36.2722C66.8627 38.3842 66.8787 40.3042 66.9107 42.0322C66.9427 43.7602 66.9747 45.3922 67.0067 46.9282C67.0707 48.4642 67.1347 49.9522 67.1987 51.3922C67.2627 52.8322 67.3267 54.3042 67.3907 55.8082C68.3187 54.5602 69.1827 53.1362 69.9827 51.5362C70.7827 49.9042 71.4707 48.2402 72.0467 46.5442C72.6547 44.8162 73.1187 43.1042 73.4387 41.4082C73.7907 39.7122 73.9667 38.1442 73.9667 36.7042ZM91.3427 58.1602C91.1187 58.6402 90.8787 59.1362 90.6227 59.6482C90.3987 60.1602 90.1107 60.6402 89.7587 61.0882C87.9987 63.5842 85.9987 65.5522 83.7587 66.9922C81.5187 68.4002 79.2947 69.1042 77.0867 69.1042C75.7107 69.1042 74.3987 68.7842 73.1507 68.1442C71.9027 67.5362 70.7987 66.5442 69.8387 65.1682C69.7107 65.0082 69.6467 64.8642 69.6467 64.7362C69.6467 64.4482 69.8387 64.3042 70.2227 64.3042C70.2547 64.3042 70.3667 64.3362 70.5587 64.4002C70.8147 64.4002 71.1027 64.4962 71.4227 64.6882C71.7747 64.8482 72.2707 64.9282 72.9107 64.9282C73.9027 64.9282 74.8307 64.7522 75.6947 64.4002C76.5587 64.0482 77.2947 63.6002 77.9027 63.0562C78.5427 62.4802 79.0387 61.8402 79.3907 61.1362C79.7427 60.4002 79.9187 59.6482 79.9187 58.8802C79.9187 57.9202 79.6627 57.0882 79.1507 56.3842C78.6707 55.6802 77.8387 55.3282 76.6547 55.3282C75.4387 55.3282 74.3187 55.7602 73.2947 56.6242C72.2707 57.4562 71.3427 58.4802 70.5107 59.6962C69.7107 60.8802 69.0227 62.1442 68.4467 63.4882C67.8707 64.8002 67.4387 65.9522 67.1507 66.9442C66.9907 67.4882 66.8467 67.8242 66.7187 67.9522C66.5907 68.0802 66.4467 68.1442 66.2867 68.1442C65.9347 68.1442 65.7747 67.8082 65.8067 67.1362C65.8067 66.8482 65.8227 66.4962 65.8547 66.0802C65.8867 65.6642 65.9187 65.2162 65.9507 64.7362C65.9507 64.2562 65.9667 63.7762 65.9987 63.2962C66.0307 62.7842 66.0467 62.3202 66.0467 61.9042C66.0467 60.4642 66.0147 58.8162 65.9507 56.9602C65.8867 55.0722 65.8067 53.1362 65.7107 51.1522C65.6147 49.1362 65.5347 47.1362 65.4707 45.1522C65.4067 43.1682 65.3747 41.3442 65.3747 39.6802C65.3747 38.3682 65.4707 37.1042 65.6627 35.8882C65.8547 34.6402 66.1587 33.5522 66.5747 32.6242C66.9907 31.6642 67.5187 30.9122 68.1587 30.3682C68.7987 29.7922 69.5507 29.5042 70.4147 29.5042C71.3107 29.5042 72.0627 29.6642 72.6707 29.9842C73.3107 30.2722 73.8227 30.7042 74.2067 31.2802C74.5907 31.8242 74.8627 32.4962 75.0227 33.2962C75.2147 34.0642 75.3107 34.9122 75.3107 35.8402C75.3107 37.4402 75.0867 39.2002 74.6387 41.1202C74.1907 43.0082 73.5987 44.9122 72.8627 46.8322C72.1267 48.7522 71.2787 50.6082 70.3187 52.4002C69.3907 54.1602 68.4307 55.6962 67.4387 57.0082C67.5027 57.9682 67.5347 58.9602 67.5347 59.9842C67.5667 61.0082 67.6147 62.0962 67.6787 63.2482C68.4787 61.5202 69.3587 60.0322 70.3187 58.7842C70.7347 58.2402 71.1987 57.7122 71.7107 57.2002C72.2547 56.6562 72.8147 56.1762 73.3907 55.7602C73.9987 55.3442 74.6387 55.0082 75.3107 54.7522C76.0147 54.4962 76.7507 54.3682 77.5187 54.3682C78.7347 54.3682 79.7907 54.6722 80.6867 55.2802C81.5827 55.8882 82.0307 56.8642 82.0307 58.2082C82.0307 59.4882 81.7107 60.5762 81.0707 61.4722C80.4627 62.3682 79.6947 63.1202 78.7667 63.7282C77.8387 64.3042 76.8467 64.7362 75.7907 65.0242C74.7347 65.3122 73.7747 65.4882 72.9107 65.5522C72.8467 65.5522 72.8147 65.5682 72.8147 65.6002C72.8147 65.6642 72.8627 65.7602 72.9587 65.8882C73.5987 66.6242 74.3187 67.1522 75.1187 67.4722C75.9187 67.7922 76.7507 67.9522 77.6147 67.9522C78.6707 67.9522 79.7427 67.7602 80.8307 67.3762C81.9187 66.9602 82.9587 66.4322 83.9507 65.7922C84.9427 65.1202 85.8547 64.3682 86.6867 63.5362C87.5507 62.6722 88.2547 61.8082 88.7987 60.9442C89.1187 60.4642 89.4067 59.9682 89.6627 59.4562C89.9187 58.9442 90.1747 58.4322 90.4307 57.9202L91.3427 58.1602Z" fill="#FFF9F4"/>
<path d="M98.1096 55.1842C98.1096 54.3202 97.8856 53.6162 97.4376 53.0722C97.0216 52.4962 96.3336 52.2082 95.3736 52.2082C94.8616 52.2082 94.3976 52.3682 93.9816 52.6882C93.5656 53.0082 93.2136 53.4402 92.9256 53.9842C92.6376 54.4962 92.4136 55.1042 92.2536 55.8082C92.0936 56.5122 92.0136 57.2482 92.0136 58.0162C92.0136 59.2322 92.1416 60.3202 92.3976 61.2802C92.6856 62.2082 93.0856 63.0242 93.5976 63.7282C94.2696 63.1842 94.8776 62.5602 95.4216 61.8562C95.9656 61.1522 96.4296 60.4162 96.8136 59.6482C97.2296 58.8802 97.5496 58.1122 97.7736 57.3442C97.9976 56.5762 98.1096 55.8562 98.1096 55.1842ZM110.254 58.1602C110.03 58.6402 109.79 59.1362 109.534 59.6482C109.31 60.1282 109.022 60.6082 108.67 61.0882C107.102 63.3282 105.31 65.0242 103.294 66.1762C101.31 67.2962 99.4056 67.8562 97.5816 67.8562C96.5576 67.8562 95.5976 67.6802 94.7016 67.3282C93.8376 66.9762 93.0856 66.4482 92.4456 65.7442C91.8056 65.0402 91.2936 64.1602 90.9096 63.1042C90.5256 62.0482 90.3336 60.8002 90.3336 59.3602C90.3336 58.4002 90.4776 57.4402 90.7656 56.4802C91.0536 55.5202 91.4376 54.6562 91.9176 53.8882C92.4296 53.1202 93.0056 52.4962 93.6456 52.0162C94.3176 51.5362 95.0216 51.2962 95.7576 51.2962C96.9416 51.2962 97.8056 51.6482 98.3496 52.3522C98.8936 53.0242 99.1656 53.8882 99.1656 54.9442C99.1656 56.3842 98.7176 57.9522 97.8216 59.6482C96.9576 61.3122 95.7096 62.8642 94.0776 64.3042C95.2936 65.6802 96.8616 66.3682 98.7816 66.3682C100.222 66.3682 101.726 65.9362 103.294 65.0722C104.862 64.1762 106.334 62.8002 107.71 60.9442C108.062 60.4962 108.35 60.0162 108.574 59.5042C108.83 58.9602 109.086 58.4322 109.342 57.9202L110.254 58.1602Z" fill="#FFF9F4"/>
<path d="M151.839 46.0642C150.655 46.0642 149.519 46.1922 148.431 46.4482C147.375 46.7042 146.431 47.0082 145.599 47.3602C144.799 47.7122 144.143 48.0802 143.631 48.4642C143.151 48.8482 142.911 49.1842 142.911 49.4722C142.911 49.8562 143.359 50.0482 144.255 50.0482C145.791 50.0482 147.247 49.6802 148.623 48.9442C150.031 48.2082 151.295 47.2482 152.415 46.0642H151.839ZM165.807 53.2642C165.807 54.8322 165.359 56.5282 164.463 58.3522C163.599 60.1762 162.399 61.9842 160.863 63.7762C159.327 65.5682 157.503 67.2962 155.391 68.9602C153.279 70.6242 151.007 72.0962 148.575 73.3762C146.143 74.6562 143.583 75.6642 140.895 76.4002C138.207 77.1682 135.519 77.5522 132.831 77.5522C132.383 77.5522 131.887 77.5362 131.343 77.5042C130.831 77.4722 130.351 77.3922 129.903 77.2642C129.455 77.1682 129.071 76.9922 128.751 76.7362C128.431 76.5122 128.271 76.1922 128.271 75.7762C128.271 75.2002 128.559 74.6402 129.135 74.0962C129.711 73.5842 130.447 73.1042 131.343 72.6562C132.239 72.2082 133.215 71.8082 134.271 71.4562C135.327 71.1042 136.335 70.8002 137.295 70.5442C138.287 70.2882 139.151 70.0802 139.887 69.9202C140.623 69.7922 141.119 69.7282 141.375 69.7282C141.567 69.7282 141.711 69.7762 141.807 69.8722C141.903 69.9682 141.951 70.0642 141.951 70.1602C141.951 70.3202 141.871 70.4002 141.711 70.4002H141.087C140.255 70.4002 139.199 70.5602 137.919 70.8802C136.639 71.2002 135.391 71.6002 134.175 72.0802C132.959 72.5602 131.919 73.0882 131.055 73.6642C130.191 74.2722 129.759 74.8322 129.759 75.3442C129.759 75.6962 129.871 75.9682 130.095 76.1602C130.351 76.3842 130.655 76.5602 131.007 76.6882C131.359 76.8162 131.727 76.8962 132.111 76.9282C132.495 76.9922 132.831 77.0242 133.119 77.0242C135.391 77.0242 137.711 76.6402 140.079 75.8722C142.479 75.1042 144.799 74.0802 147.039 72.8002C149.311 71.5522 151.439 70.0962 153.423 68.4322C155.439 66.8002 157.199 65.1042 158.703 63.3442C160.207 61.5522 161.391 59.7762 162.255 58.0162C163.119 56.2242 163.551 54.5602 163.551 53.0242C163.551 51.1362 162.767 49.5682 161.199 48.3202C159.663 47.0402 157.119 46.3042 153.567 46.1122C152.127 47.4562 150.543 48.5442 148.815 49.3762C147.119 50.2082 145.391 50.6242 143.631 50.6242C142.383 50.6242 141.759 50.3202 141.759 49.7122C141.759 49.3282 142.015 48.8962 142.527 48.4162C143.071 47.9042 143.807 47.4242 144.735 46.9762C145.695 46.5282 146.831 46.1602 148.143 45.8722C149.455 45.5522 150.895 45.3922 152.463 45.3922H153.039C154.095 44.1442 154.943 42.7842 155.583 41.3122C156.223 39.8082 156.543 38.3362 156.543 36.8962C156.543 35.9362 156.367 35.0242 156.015 34.1602C155.695 33.2642 155.151 32.4962 154.383 31.8562C153.647 31.2162 152.671 30.7042 151.455 30.3202C150.271 29.9362 148.831 29.7442 147.135 29.7442C145.983 29.7442 144.383 29.9042 142.335 30.2242C140.319 30.5442 138.127 31.0402 135.759 31.7122C133.423 32.3522 131.039 33.1682 128.607 34.1602C126.175 35.1522 123.967 36.3042 121.983 37.6162C119.999 38.9282 118.383 40.4162 117.135 42.0802C115.887 43.7442 115.263 45.5842 115.263 47.6002C115.263 47.8562 115.215 48.0802 115.119 48.2722C115.023 48.4322 114.927 48.5122 114.831 48.5122C114.703 48.5122 114.607 48.3842 114.543 48.1282C114.447 47.8402 114.399 47.3762 114.399 46.7362C114.687 44.6562 115.535 42.7682 116.943 41.0722C118.351 39.3762 120.095 37.8722 122.175 36.5602C124.223 35.2162 126.479 34.0642 128.943 33.1042C131.407 32.1442 133.839 31.3602 136.239 30.7522C138.671 30.1122 140.927 29.6482 143.007 29.3602C145.119 29.0402 146.847 28.8802 148.191 28.8802C150.143 28.8802 151.791 29.0722 153.135 29.4562C154.511 29.8082 155.631 30.3042 156.495 30.9442C157.359 31.5522 157.983 32.2882 158.367 33.1522C158.751 34.0162 158.943 34.9282 158.943 35.8882C158.943 37.4562 158.511 39.0882 157.647 40.7842C156.815 42.4482 155.679 44.0002 154.239 45.4402C156.287 45.5362 158.047 45.8082 159.519 46.2562C160.991 46.6722 162.191 47.2322 163.119 47.9362C164.047 48.6082 164.719 49.4082 165.135 50.3362C165.583 51.2322 165.807 52.2082 165.807 53.2642ZM140.367 65.8882C140.367 66.3362 140.335 66.6562 140.271 66.8482C140.207 67.0402 140.031 67.1362 139.743 67.1362C139.103 67.2002 138.783 66.5602 138.783 65.2162C138.751 60.8002 138.703 56.7682 138.639 53.1202C138.607 49.4722 138.559 46.3202 138.495 43.6642C138.463 40.9762 138.431 38.8482 138.399 37.2802C138.367 35.7122 138.351 34.8162 138.351 34.5922C138.351 34.3362 138.431 34.1602 138.591 34.0642C138.751 33.9682 138.943 33.8882 139.167 33.8242C139.423 33.8242 139.615 33.9042 139.743 34.0642C139.903 34.2242 139.983 34.4162 139.983 34.6402C139.983 37.2002 139.999 39.8402 140.031 42.5602C140.063 45.2482 140.095 47.9362 140.127 50.6242C140.191 53.3122 140.239 55.9522 140.271 58.5442C140.335 61.1362 140.367 63.5842 140.367 65.8882Z" fill="#FFF9F4"/>
<path d="M184.465 58.2082C184.465 57.7282 184.385 57.3442 184.225 57.0562C184.065 56.7362 183.809 56.5762 183.457 56.5762C182.913 56.5762 182.497 56.8482 182.209 57.3922C181.921 57.9042 181.793 58.5602 181.825 59.3602C181.921 61.0562 182.225 62.4802 182.737 63.6322C183.281 62.8962 183.697 62.0642 183.985 61.1362C184.305 60.2082 184.465 59.2322 184.465 58.2082ZM197.425 58.1602C197.201 58.6402 196.961 59.1362 196.705 59.6482C196.449 60.1282 196.161 60.6082 195.841 61.0882C194.209 63.5202 192.561 65.3282 190.897 66.5122C189.233 67.6962 187.681 68.2882 186.241 68.2882C184.417 68.2882 183.025 67.4242 182.065 65.6962C180.945 66.8162 179.681 67.6642 178.273 68.2402C176.897 68.8162 175.537 69.1042 174.193 69.1042C173.393 69.1042 172.625 68.9922 171.889 68.7682C171.185 68.5442 170.577 68.2082 170.065 67.7602C169.521 67.2802 169.089 66.6882 168.769 65.9842C168.449 65.2482 168.289 64.4002 168.289 63.4402C168.289 62.2882 168.561 61.1202 169.105 59.9362C169.617 58.7202 170.337 57.6322 171.265 56.6722C172.225 55.6802 173.345 54.8642 174.625 54.2242C175.905 53.5842 177.297 53.2642 178.801 53.2642C180.017 53.2642 180.961 53.4402 181.633 53.7922C182.305 54.1122 182.641 54.4162 182.641 54.7042C182.641 54.8322 182.577 54.9282 182.449 54.9922C182.321 55.0562 182.209 55.0882 182.113 55.0882C182.081 55.0562 182.049 55.0402 182.017 55.0402H181.969C181.585 54.6882 181.153 54.4162 180.673 54.2242C180.193 54.0002 179.489 53.8882 178.561 53.8882C177.313 53.8882 176.177 54.1602 175.153 54.7042C174.161 55.2162 173.313 55.9042 172.609 56.7682C171.905 57.6002 171.361 58.5282 170.977 59.5522C170.593 60.5762 170.401 61.5842 170.401 62.5762C170.401 64.4962 170.849 65.8882 171.745 66.7522C172.641 67.6162 173.761 68.0482 175.105 68.0482C176.193 68.0482 177.329 67.7762 178.513 67.2322C179.697 66.6882 180.753 65.9202 181.681 64.9282C181.169 63.7762 180.913 62.2722 180.913 60.4162C180.913 59.2002 181.137 58.1442 181.585 57.2482C182.033 56.3522 182.673 55.9042 183.505 55.9042C184.657 55.9042 185.233 56.5762 185.233 57.9202C185.233 59.2642 185.041 60.4802 184.657 61.5682C184.273 62.6242 183.761 63.5842 183.121 64.4482C184.017 66.1122 185.265 66.9442 186.865 66.9442C188.081 66.9442 189.377 66.4322 190.753 65.4082C192.161 64.3842 193.537 62.8962 194.881 60.9442C195.201 60.4642 195.489 59.9682 195.745 59.4562C196.001 58.9442 196.257 58.4322 196.513 57.9202L197.425 58.1602Z" fill="#FFF9F4"/>
<path d="M204.092 36.7042C204.092 34.8802 203.788 33.4242 203.18 32.3362C202.604 31.2162 201.628 30.6562 200.252 30.6562C199.772 30.6562 199.324 30.8162 198.908 31.1362C198.524 31.4242 198.188 31.8242 197.9 32.3362C197.612 32.8482 197.388 33.4402 197.228 34.1122C197.068 34.7842 196.988 35.5042 196.988 36.2722C196.988 38.3842 197.004 40.3042 197.036 42.0322C197.068 43.7602 197.1 45.3922 197.132 46.9282C197.196 48.4642 197.26 49.9522 197.324 51.3922C197.388 52.8322 197.452 54.3042 197.516 55.8082C198.444 54.5602 199.308 53.1362 200.108 51.5362C200.908 49.9042 201.596 48.2402 202.172 46.5442C202.78 44.8162 203.244 43.1042 203.564 41.4082C203.916 39.7122 204.092 38.1442 204.092 36.7042ZM221.468 58.1602C221.244 58.6402 221.004 59.1362 220.748 59.6482C220.524 60.1602 220.236 60.6402 219.884 61.0882C218.124 63.5842 216.124 65.5522 213.884 66.9922C211.644 68.4002 209.42 69.1042 207.212 69.1042C205.836 69.1042 204.524 68.7842 203.276 68.1442C202.028 67.5362 200.924 66.5442 199.964 65.1682C199.836 65.0082 199.772 64.8642 199.772 64.7362C199.772 64.4482 199.964 64.3042 200.348 64.3042C200.38 64.3042 200.492 64.3362 200.684 64.4002C200.94 64.4002 201.228 64.4962 201.548 64.6882C201.9 64.8482 202.396 64.9282 203.036 64.9282C204.028 64.9282 204.956 64.7522 205.82 64.4002C206.684 64.0482 207.42 63.6002 208.028 63.0562C208.668 62.4802 209.164 61.8402 209.516 61.1362C209.868 60.4002 210.044 59.6482 210.044 58.8802C210.044 57.9202 209.788 57.0882 209.276 56.3842C208.796 55.6802 207.964 55.3282 206.78 55.3282C205.564 55.3282 204.444 55.7602 203.42 56.6242C202.396 57.4562 201.468 58.4802 200.636 59.6962C199.836 60.8802 199.148 62.1442 198.572 63.4882C197.996 64.8002 197.564 65.9522 197.276 66.9442C197.116 67.4882 196.972 67.8242 196.844 67.9522C196.716 68.0802 196.572 68.1442 196.412 68.1442C196.06 68.1442 195.9 67.8082 195.932 67.1362C195.932 66.8482 195.948 66.4962 195.98 66.0802C196.012 65.6642 196.044 65.2162 196.076 64.7362C196.076 64.2562 196.092 63.7762 196.124 63.2962C196.156 62.7842 196.172 62.3202 196.172 61.9042C196.172 60.4642 196.14 58.8162 196.076 56.9602C196.012 55.0722 195.932 53.1362 195.836 51.1522C195.74 49.1362 195.66 47.1362 195.596 45.1522C195.532 43.1682 195.5 41.3442 195.5 39.6802C195.5 38.3682 195.596 37.1042 195.788 35.8882C195.98 34.6402 196.284 33.5522 196.7 32.6242C197.116 31.6642 197.644 30.9122 198.284 30.3682C198.924 29.7922 199.676 29.5042 200.54 29.5042C201.436 29.5042 202.188 29.6642 202.796 29.9842C203.436 30.2722 203.948 30.7042 204.332 31.2802C204.716 31.8242 204.988 32.4962 205.148 33.2962C205.34 34.0642 205.436 34.9122 205.436 35.8402C205.436 37.4402 205.212 39.2002 204.764 41.1202C204.316 43.0082 203.724 44.9122 202.988 46.8322C202.252 48.7522 201.404 50.6082 200.444 52.4002C199.516 54.1602 198.556 55.6962 197.564 57.0082C197.628 57.9682 197.66 58.9602 197.66 59.9842C197.692 61.0082 197.74 62.0962 197.804 63.2482C198.604 61.5202 199.484 60.0322 200.444 58.7842C200.86 58.2402 201.324 57.7122 201.836 57.2002C202.38 56.6562 202.94 56.1762 203.516 55.7602C204.124 55.3442 204.764 55.0082 205.436 54.7522C206.14 54.4962 206.876 54.3682 207.644 54.3682C208.86 54.3682 209.916 54.6722 210.812 55.2802C211.708 55.8882 212.156 56.8642 212.156 58.2082C212.156 59.4882 211.836 60.5762 211.196 61.4722C210.588 62.3682 209.82 63.1202 208.892 63.7282C207.964 64.3042 206.972 64.7362 205.916 65.0242C204.86 65.3122 203.9 65.4882 203.036 65.5522C202.972 65.5522 202.94 65.5682 202.94 65.6002C202.94 65.6642 202.988 65.7602 203.084 65.8882C203.724 66.6242 204.444 67.1522 205.244 67.4722C206.044 67.7922 206.876 67.9522 207.74 67.9522C208.796 67.9522 209.868 67.7602 210.956 67.3762C212.044 66.9602 213.084 66.4322 214.076 65.7922C215.068 65.1202 215.98 64.3682 216.812 63.5362C217.676 62.6722 218.38 61.8082 218.924 60.9442C219.244 60.4642 219.532 59.9682 219.788 59.4562C220.044 58.9442 220.3 58.4322 220.556 57.9202L221.468 58.1602Z" fill="#FFF9F4"/>
<path d="M228.235 55.1842C228.235 54.3202 228.011 53.6162 227.563 53.0722C227.147 52.4962 226.459 52.2082 225.499 52.2082C224.987 52.2082 224.523 52.3682 224.107 52.6882C223.691 53.0082 223.339 53.4402 223.051 53.9842C222.763 54.4962 222.539 55.1042 222.379 55.8082C222.219 56.5122 222.139 57.2482 222.139 58.0162C222.139 59.2322 222.267 60.3202 222.523 61.2802C222.811 62.2082 223.211 63.0242 223.723 63.7282C224.395 63.1842 225.003 62.5602 225.547 61.8562C226.091 61.1522 226.555 60.4162 226.939 59.6482C227.355 58.8802 227.675 58.1122 227.899 57.3442C228.123 56.5762 228.235 55.8562 228.235 55.1842ZM240.379 58.1602C240.155 58.6402 239.915 59.1362 239.659 59.6482C239.435 60.1282 239.147 60.6082 238.795 61.0882C237.227 63.3282 235.435 65.0242 233.419 66.1762C231.435 67.2962 229.531 67.8562 227.707 67.8562C226.683 67.8562 225.723 67.6802 224.827 67.3282C223.963 66.9762 223.211 66.4482 222.571 65.7442C221.931 65.0402 221.419 64.1602 221.035 63.1042C220.651 62.0482 220.459 60.8002 220.459 59.3602C220.459 58.4002 220.603 57.4402 220.891 56.4802C221.179 55.5202 221.563 54.6562 222.043 53.8882C222.555 53.1202 223.131 52.4962 223.771 52.0162C224.443 51.5362 225.147 51.2962 225.883 51.2962C227.067 51.2962 227.931 51.6482 228.475 52.3522C229.019 53.0242 229.291 53.8882 229.291 54.9442C229.291 56.3842 228.843 57.9522 227.947 59.6482C227.083 61.3122 225.835 62.8642 224.203 64.3042C225.419 65.6802 226.987 66.3682 228.907 66.3682C230.347 66.3682 231.851 65.9362 233.419 65.0722C234.987 64.1762 236.459 62.8002 237.835 60.9442C238.187 60.4962 238.475 60.0162 238.699 59.5042C238.955 58.9602 239.211 58.4322 239.467 57.9202L240.379 58.1602Z" fill="#FFF9F4"/>
</svg>
